Cast
  (Episode Credited cast)
	Mikhail Baryshnikov	... 	Count Albrecht
	Martin Bookspan	... 	Offscreen announcer (voice)
	George De La Pena		
	Nanette Glushak		
	Natalya Makarova	... 	Giselle
	Alexander Minz		
	Richard Schafer		

 
http://www.imdb.com/title/tt0491393/



 Video #2
      ID : 2
      Format : VC-1
      Format profile : MP@ML
      Codec ID : WMV3
      Codec ID/Info : Windows Media Video 9
      Codec ID/Hint : WMV3
      Duration : 1h 35mn
      Bit rate mode : Variable
      Bit rate : 1 000 Kbps
      Width : 640 pixels
      Height : 480 pixels
      Display aspect ratio : 4/3
      Frame rate : 25.000 fps
      Resolution : 24 bits
      Scan type : Progressive
      Bits/(Pixel*Frame) : 0.130
      Stream size : 681 MiB (90%)
   Audio #1
      ID : 1
      Format : WMA2
      Format profile : L
      Codec ID : 161
      Codec ID/Info : Windows Media Audio 2
      Description of the codec : Windows Media Audio 9.2 -  96 kbps, 44 kHz, stereo 2-pass VBR
      Duration : 1h 35mn
      Bit rate mode : Variable
      Bit rate : 96.2 Kbps
      Channel(s) : 2 channels
      Sampling rate : 44.1 KHz
      Resolution : 16 bits
      Stream size : 65.5 MiB (9%)



   Please seed at least as much as you D/L.
   =======================================
   Thanks 

   John